{
	"patcher" : 	{
		"fileversion" : 1,
		"appversion" : 		{
			"major" : 8,
			"minor" : 1,
			"revision" : 8,
			"architecture" : "x64",
			"modernui" : 1
		}
,
		"classnamespace" : "box",
		"rect" : [ 59.0, 104.0, 746.0, 684.0 ],
		"bglocked" : 0,
		"openinpresentation" : 1,
		"default_fontsize" : 12.0,
		"default_fontface" : 0,
		"default_fontname" : "Arial",
		"gridonopen" : 1,
		"gridsize" : [ 15.0, 15.0 ],
		"gridsnaponopen" : 1,
		"objectsnaponopen" : 1,
		"statusbarvisible" : 2,
		"toolbarvisible" : 1,
		"lefttoolbarpinned" : 0,
		"toptoolbarpinned" : 0,
		"righttoolbarpinned" : 0,
		"bottomtoolbarpinned" : 0,
		"toolbars_unpinned_last_save" : 0,
		"tallnewobj" : 0,
		"boxanimatetime" : 200,
		"enablehscroll" : 1,
		"enablevscroll" : 1,
		"devicewidth" : 0.0,
		"description" : "",
		"digest" : "",
		"tags" : "",
		"style" : "",
		"subpatcher_template" : "",
		"assistshowspatchername" : 0,
		"boxes" : [ 			{
				"box" : 				{
					"id" : "obj-16",
					"maxclass" : "newobj",
					"numinlets" : 1,
					"numoutlets" : 4,
					"outlettype" : [ "", "", "", "" ],
					"patching_rect" : [ 27.0, 406.0, 56.0, 22.0 ],
					"text" : "autopattr",
					"varname" : "u900010475"
				}

			}
, 			{
				"box" : 				{
					"args" : [ 16 ],
					"bgmode" : 0,
					"border" : 0,
					"clickthrough" : 0,
					"enablehscroll" : 0,
					"enablevscroll" : 0,
					"id" : "obj-20",
					"lockeddragscroll" : 0,
					"maxclass" : "bpatcher",
					"name" : "bve.patterns_step.maxpat",
					"numinlets" : 1,
					"numoutlets" : 5,
					"offset" : [ 0.0, 0.0 ],
					"outlettype" : [ "", "int", "int", "int", "" ],
					"patching_rect" : [ 124.0, 418.0, 337.0, 23.0 ],
					"presentation" : 1,
					"presentation_rect" : [ 0.0, 285.0, 211.0, 25.0 ],
					"varname" : "step[8]",
					"viewvisibility" : 1
				}

			}
, 			{
				"box" : 				{
					"args" : [ 15 ],
					"bgmode" : 0,
					"border" : 0,
					"clickthrough" : 0,
					"enablehscroll" : 0,
					"enablevscroll" : 0,
					"id" : "obj-21",
					"lockeddragscroll" : 0,
					"maxclass" : "bpatcher",
					"name" : "bve.patterns_step.maxpat",
					"numinlets" : 1,
					"numoutlets" : 5,
					"offset" : [ 0.0, 0.0 ],
					"outlettype" : [ "", "int", "int", "int", "" ],
					"patching_rect" : [ 124.0, 399.0, 337.0, 23.0 ],
					"presentation" : 1,
					"presentation_rect" : [ 0.0, 266.0, 211.0, 24.0 ],
					"varname" : "step[9]",
					"viewvisibility" : 1
				}

			}
, 			{
				"box" : 				{
					"args" : [ 14 ],
					"bgmode" : 0,
					"border" : 0,
					"clickthrough" : 0,
					"enablehscroll" : 0,
					"enablevscroll" : 0,
					"id" : "obj-22",
					"lockeddragscroll" : 0,
					"maxclass" : "bpatcher",
					"name" : "bve.patterns_step.maxpat",
					"numinlets" : 1,
					"numoutlets" : 5,
					"offset" : [ 0.0, 0.0 ],
					"outlettype" : [ "", "int", "int", "int", "" ],
					"patching_rect" : [ 124.0, 380.0, 337.0, 23.0 ],
					"presentation" : 1,
					"presentation_rect" : [ 0.0, 247.0, 211.0, 24.0 ],
					"varname" : "step[10]",
					"viewvisibility" : 1
				}

			}
, 			{
				"box" : 				{
					"args" : [ 13 ],
					"bgmode" : 0,
					"border" : 0,
					"clickthrough" : 0,
					"enablehscroll" : 0,
					"enablevscroll" : 0,
					"id" : "obj-23",
					"lockeddragscroll" : 0,
					"maxclass" : "bpatcher",
					"name" : "bve.patterns_step.maxpat",
					"numinlets" : 1,
					"numoutlets" : 5,
					"offset" : [ 0.0, 0.0 ],
					"outlettype" : [ "", "int", "int", "int", "" ],
					"patching_rect" : [ 124.0, 361.0, 337.0, 23.0 ],
					"presentation" : 1,
					"presentation_rect" : [ 0.0, 228.0, 211.0, 24.0 ],
					"varname" : "step[11]",
					"viewvisibility" : 1
				}

			}
, 			{
				"box" : 				{
					"args" : [ 12 ],
					"bgmode" : 0,
					"border" : 0,
					"clickthrough" : 0,
					"enablehscroll" : 0,
					"enablevscroll" : 0,
					"id" : "obj-24",
					"lockeddragscroll" : 0,
					"maxclass" : "bpatcher",
					"name" : "bve.patterns_step.maxpat",
					"numinlets" : 1,
					"numoutlets" : 5,
					"offset" : [ 0.0, 0.0 ],
					"outlettype" : [ "", "int", "int", "int", "" ],
					"patching_rect" : [ 124.0, 342.0, 337.0, 23.0 ],
					"presentation" : 1,
					"presentation_rect" : [ 0.0, 209.0, 211.0, 24.0 ],
					"varname" : "step[12]",
					"viewvisibility" : 1
				}

			}
, 			{
				"box" : 				{
					"args" : [ 11 ],
					"bgmode" : 0,
					"border" : 0,
					"clickthrough" : 0,
					"enablehscroll" : 0,
					"enablevscroll" : 0,
					"id" : "obj-25",
					"lockeddragscroll" : 0,
					"maxclass" : "bpatcher",
					"name" : "bve.patterns_step.maxpat",
					"numinlets" : 1,
					"numoutlets" : 5,
					"offset" : [ 0.0, 0.0 ],
					"outlettype" : [ "", "int", "int", "int", "" ],
					"patching_rect" : [ 124.0, 323.0, 337.0, 23.0 ],
					"presentation" : 1,
					"presentation_rect" : [ 0.0, 190.0, 211.0, 24.0 ],
					"varname" : "step[13]",
					"viewvisibility" : 1
				}

			}
, 			{
				"box" : 				{
					"args" : [ 10 ],
					"bgmode" : 0,
					"border" : 0,
					"clickthrough" : 0,
					"enablehscroll" : 0,
					"enablevscroll" : 0,
					"id" : "obj-26",
					"lockeddragscroll" : 0,
					"maxclass" : "bpatcher",
					"name" : "bve.patterns_step.maxpat",
					"numinlets" : 1,
					"numoutlets" : 5,
					"offset" : [ 0.0, 0.0 ],
					"outlettype" : [ "", "int", "int", "int", "" ],
					"patching_rect" : [ 124.0, 304.0, 337.0, 23.0 ],
					"presentation" : 1,
					"presentation_rect" : [ 0.0, 171.0, 211.0, 24.0 ],
					"varname" : "step[14]",
					"viewvisibility" : 1
				}

			}
, 			{
				"box" : 				{
					"args" : [ 9 ],
					"bgmode" : 0,
					"border" : 0,
					"clickthrough" : 0,
					"enablehscroll" : 0,
					"enablevscroll" : 0,
					"id" : "obj-27",
					"lockeddragscroll" : 0,
					"maxclass" : "bpatcher",
					"name" : "bve.patterns_step.maxpat",
					"numinlets" : 1,
					"numoutlets" : 5,
					"offset" : [ 0.0, 0.0 ],
					"outlettype" : [ "", "int", "int", "int", "" ],
					"patching_rect" : [ 124.0, 285.0, 337.0, 23.0 ],
					"presentation" : 1,
					"presentation_rect" : [ 0.0, 152.0, 211.0, 24.0 ],
					"varname" : "step[15]",
					"viewvisibility" : 1
				}

			}
, 			{
				"box" : 				{
					"comment" : "",
					"id" : "obj-18",
					"index" : 0,
					"maxclass" : "inlet",
					"numinlets" : 0,
					"numoutlets" : 1,
					"outlettype" : [ "" ],
					"patching_rect" : [ 480.0, 26.0, 30.0, 30.0 ]
				}

			}
, 			{
				"box" : 				{
					"fontname" : "Arial",
					"fontsize" : 11.934730999999999,
					"id" : "obj-19",
					"maxclass" : "newobj",
					"numinlets" : 1,
					"numoutlets" : 2,
					"outlettype" : [ "", "" ],
					"patching_rect" : [ 480.0, 60.5, 67.0, 22.0 ],
					"save" : [ "#N", "thispatcher", ";", "#Q", "end", ";" ],
					"text" : "thispatcher"
				}

			}
, 			{
				"box" : 				{
					"comment" : "extra 1",
					"id" : "obj-15",
					"index" : 0,
					"maxclass" : "outlet",
					"numinlets" : 1,
					"numoutlets" : 0,
					"patching_rect" : [ 203.5, 585.0, 30.0, 30.0 ]
				}

			}
, 			{
				"box" : 				{
					"comment" : "extra 2",
					"id" : "obj-14",
					"index" : 0,
					"maxclass" : "outlet",
					"numinlets" : 1,
					"numoutlets" : 0,
					"patching_rect" : [ 283.0, 585.0, 30.0, 30.0 ]
				}

			}
, 			{
				"box" : 				{
					"comment" : "extra 3",
					"id" : "obj-13",
					"index" : 0,
					"maxclass" : "outlet",
					"numinlets" : 1,
					"numoutlets" : 0,
					"patching_rect" : [ 362.5, 585.0, 30.0, 30.0 ]
				}

			}
, 			{
				"box" : 				{
					"comment" : "noteout",
					"id" : "obj-12",
					"index" : 0,
					"maxclass" : "outlet",
					"numinlets" : 1,
					"numoutlets" : 0,
					"patching_rect" : [ 124.0, 585.0, 30.0, 30.0 ]
				}

			}
, 			{
				"box" : 				{
					"comment" : "",
					"id" : "obj-11",
					"index" : 0,
					"maxclass" : "inlet",
					"numinlets" : 0,
					"numoutlets" : 1,
					"outlettype" : [ "" ],
					"patching_rect" : [ 124.0, 30.0, 30.0, 30.0 ]
				}

			}
, 			{
				"box" : 				{
					"args" : [ 8 ],
					"bgmode" : 0,
					"border" : 0,
					"clickthrough" : 0,
					"enablehscroll" : 0,
					"enablevscroll" : 0,
					"id" : "obj-9",
					"lockeddragscroll" : 0,
					"maxclass" : "bpatcher",
					"name" : "bve.patterns_step.maxpat",
					"numinlets" : 1,
					"numoutlets" : 5,
					"offset" : [ 0.0, 0.0 ],
					"outlettype" : [ "", "int", "int", "int", "" ],
					"patching_rect" : [ 124.0, 266.0, 337.0, 23.0 ],
					"presentation" : 1,
					"presentation_rect" : [ 0.0, 133.0, 211.0, 24.0 ],
					"varname" : "step[6]",
					"viewvisibility" : 1
				}

			}
, 			{
				"box" : 				{
					"args" : [ 7 ],
					"bgmode" : 0,
					"border" : 0,
					"clickthrough" : 0,
					"enablehscroll" : 0,
					"enablevscroll" : 0,
					"id" : "obj-10",
					"lockeddragscroll" : 0,
					"maxclass" : "bpatcher",
					"name" : "bve.patterns_step.maxpat",
					"numinlets" : 1,
					"numoutlets" : 5,
					"offset" : [ 0.0, 0.0 ],
					"outlettype" : [ "", "int", "int", "int", "" ],
					"patching_rect" : [ 124.0, 247.0, 337.0, 23.0 ],
					"presentation" : 1,
					"presentation_rect" : [ 0.0, 114.0, 211.0, 24.0 ],
					"varname" : "step[7]",
					"viewvisibility" : 1
				}

			}
, 			{
				"box" : 				{
					"args" : [ 6 ],
					"bgmode" : 0,
					"border" : 0,
					"clickthrough" : 0,
					"enablehscroll" : 0,
					"enablevscroll" : 0,
					"id" : "obj-3",
					"lockeddragscroll" : 0,
					"maxclass" : "bpatcher",
					"name" : "bve.patterns_step.maxpat",
					"numinlets" : 1,
					"numoutlets" : 5,
					"offset" : [ 0.0, 0.0 ],
					"outlettype" : [ "", "int", "int", "int", "" ],
					"patching_rect" : [ 124.0, 228.0, 337.0, 23.0 ],
					"presentation" : 1,
					"presentation_rect" : [ 0.0, 95.0, 211.0, 24.0 ],
					"varname" : "step[3]",
					"viewvisibility" : 1
				}

			}
, 			{
				"box" : 				{
					"args" : [ 5 ],
					"bgmode" : 0,
					"border" : 0,
					"clickthrough" : 0,
					"enablehscroll" : 0,
					"enablevscroll" : 0,
					"id" : "obj-7",
					"lockeddragscroll" : 0,
					"maxclass" : "bpatcher",
					"name" : "bve.patterns_step.maxpat",
					"numinlets" : 1,
					"numoutlets" : 5,
					"offset" : [ 0.0, 0.0 ],
					"outlettype" : [ "", "int", "int", "int", "" ],
					"patching_rect" : [ 124.0, 209.0, 337.0, 23.0 ],
					"presentation" : 1,
					"presentation_rect" : [ 0.0, 76.0, 211.0, 24.0 ],
					"varname" : "step[4]",
					"viewvisibility" : 1
				}

			}
, 			{
				"box" : 				{
					"args" : [ 4 ],
					"bgmode" : 0,
					"border" : 0,
					"clickthrough" : 0,
					"enablehscroll" : 0,
					"enablevscroll" : 0,
					"id" : "obj-8",
					"lockeddragscroll" : 0,
					"maxclass" : "bpatcher",
					"name" : "bve.patterns_step.maxpat",
					"numinlets" : 1,
					"numoutlets" : 5,
					"offset" : [ 0.0, 0.0 ],
					"outlettype" : [ "", "int", "int", "int", "" ],
					"patching_rect" : [ 124.0, 190.0, 337.0, 23.0 ],
					"presentation" : 1,
					"presentation_rect" : [ 0.0, 57.0, 211.0, 24.0 ],
					"varname" : "step[5]",
					"viewvisibility" : 1
				}

			}
, 			{
				"box" : 				{
					"comment" : "step #",
					"id" : "obj-1",
					"index" : 0,
					"maxclass" : "outlet",
					"numinlets" : 1,
					"numoutlets" : 0,
					"patching_rect" : [ 442.0, 585.0, 30.0, 30.0 ]
				}

			}
, 			{
				"box" : 				{
					"id" : "obj-6",
					"maxclass" : "newobj",
					"numinlets" : 17,
					"numoutlets" : 17,
					"outlettype" : [ "", "", "", "", "", "", "", "", "", "", "", "", "", "", "", "", "" ],
					"patching_rect" : [ 442.0, 511.0, 245.0, 22.0 ],
					"text" : "route 1 2 3 4 5 6 7 8 9 10 11 12 13 14 15 16"
				}

			}
, 			{
				"box" : 				{
					"args" : [ 3 ],
					"bgmode" : 0,
					"border" : 0,
					"clickthrough" : 0,
					"enablehscroll" : 0,
					"enablevscroll" : 0,
					"id" : "obj-5",
					"lockeddragscroll" : 0,
					"maxclass" : "bpatcher",
					"name" : "bve.patterns_step.maxpat",
					"numinlets" : 1,
					"numoutlets" : 5,
					"offset" : [ 0.0, 0.0 ],
					"outlettype" : [ "", "int", "int", "int", "" ],
					"patching_rect" : [ 124.0, 171.0, 337.0, 23.0 ],
					"presentation" : 1,
					"presentation_rect" : [ 0.0, 38.0, 211.0, 24.0 ],
					"varname" : "step[2]",
					"viewvisibility" : 1
				}

			}
, 			{
				"box" : 				{
					"args" : [ 2 ],
					"bgmode" : 0,
					"border" : 0,
					"clickthrough" : 0,
					"enablehscroll" : 0,
					"enablevscroll" : 0,
					"id" : "obj-4",
					"lockeddragscroll" : 0,
					"maxclass" : "bpatcher",
					"name" : "bve.patterns_step.maxpat",
					"numinlets" : 1,
					"numoutlets" : 5,
					"offset" : [ 0.0, 0.0 ],
					"outlettype" : [ "", "int", "int", "int", "" ],
					"patching_rect" : [ 124.0, 152.0, 337.0, 23.0 ],
					"presentation" : 1,
					"presentation_rect" : [ 0.0, 19.0, 211.0, 24.0 ],
					"varname" : "step[1]",
					"viewvisibility" : 1
				}

			}
, 			{
				"box" : 				{
					"args" : [ 1 ],
					"bgmode" : 0,
					"border" : 0,
					"clickthrough" : 0,
					"enablehscroll" : 0,
					"enablevscroll" : 0,
					"id" : "obj-2",
					"lockeddragscroll" : 0,
					"maxclass" : "bpatcher",
					"name" : "bve.patterns_step.maxpat",
					"numinlets" : 1,
					"numoutlets" : 5,
					"offset" : [ 0.0, 0.0 ],
					"outlettype" : [ "", "int", "int", "int", "" ],
					"patching_rect" : [ 124.0, 133.0, 337.0, 23.0 ],
					"presentation" : 1,
					"presentation_rect" : [ 0.0, 0.0, 211.0, 24.0 ],
					"varname" : "step",
					"viewvisibility" : 1
				}

			}
 ],
		"lines" : [ 			{
				"patchline" : 				{
					"destination" : [ "obj-12", 0 ],
					"source" : [ "obj-10", 0 ]
				}

			}
, 			{
				"patchline" : 				{
					"destination" : [ "obj-13", 0 ],
					"source" : [ "obj-10", 3 ]
				}

			}
, 			{
				"patchline" : 				{
					"destination" : [ "obj-14", 0 ],
					"source" : [ "obj-10", 2 ]
				}

			}
, 			{
				"patchline" : 				{
					"destination" : [ "obj-15", 0 ],
					"source" : [ "obj-10", 1 ]
				}

			}
, 			{
				"patchline" : 				{
					"destination" : [ "obj-6", 0 ],
					"source" : [ "obj-10", 4 ]
				}

			}
, 			{
				"patchline" : 				{
					"destination" : [ "obj-10", 0 ],
					"order" : 8,
					"source" : [ "obj-11", 0 ]
				}

			}
, 			{
				"patchline" : 				{
					"destination" : [ "obj-2", 0 ],
					"order" : 0,
					"source" : [ "obj-11", 0 ]
				}

			}
, 			{
				"patchline" : 				{
					"destination" : [ "obj-20", 0 ],
					"order" : 15,
					"source" : [ "obj-11", 0 ]
				}

			}
, 			{
				"patchline" : 				{
					"destination" : [ "obj-21", 0 ],
					"order" : 11,
					"source" : [ "obj-11", 0 ]
				}

			}
, 			{
				"patchline" : 				{
					"destination" : [ "obj-22", 0 ],
					"order" : 12,
					"source" : [ "obj-11", 0 ]
				}

			}
, 			{
				"patchline" : 				{
					"destination" : [ "obj-23", 0 ],
					"order" : 13,
					"source" : [ "obj-11", 0 ]
				}

			}
, 			{
				"patchline" : 				{
					"destination" : [ "obj-24", 0 ],
					"order" : 14,
					"source" : [ "obj-11", 0 ]
				}

			}
, 			{
				"patchline" : 				{
					"destination" : [ "obj-25", 0 ],
					"order" : 10,
					"source" : [ "obj-11", 0 ]
				}

			}
, 			{
				"patchline" : 				{
					"destination" : [ "obj-26", 0 ],
					"order" : 5,
					"source" : [ "obj-11", 0 ]
				}

			}
, 			{
				"patchline" : 				{
					"destination" : [ "obj-27", 0 ],
					"order" : 6,
					"source" : [ "obj-11", 0 ]
				}

			}
, 			{
				"patchline" : 				{
					"destination" : [ "obj-3", 0 ],
					"order" : 9,
					"source" : [ "obj-11", 0 ]
				}

			}
, 			{
				"patchline" : 				{
					"destination" : [ "obj-4", 0 ],
					"order" : 1,
					"source" : [ "obj-11", 0 ]
				}

			}
, 			{
				"patchline" : 				{
					"destination" : [ "obj-5", 0 ],
					"order" : 2,
					"source" : [ "obj-11", 0 ]
				}

			}
, 			{
				"patchline" : 				{
					"destination" : [ "obj-7", 0 ],
					"order" : 4,
					"source" : [ "obj-11", 0 ]
				}

			}
, 			{
				"patchline" : 				{
					"destination" : [ "obj-8", 0 ],
					"order" : 3,
					"source" : [ "obj-11", 0 ]
				}

			}
, 			{
				"patchline" : 				{
					"destination" : [ "obj-9", 0 ],
					"order" : 7,
					"source" : [ "obj-11", 0 ]
				}

			}
, 			{
				"patchline" : 				{
					"destination" : [ "obj-19", 0 ],
					"source" : [ "obj-18", 0 ]
				}

			}
, 			{
				"patchline" : 				{
					"destination" : [ "obj-12", 0 ],
					"source" : [ "obj-2", 0 ]
				}

			}
, 			{
				"patchline" : 				{
					"destination" : [ "obj-13", 0 ],
					"source" : [ "obj-2", 3 ]
				}

			}
, 			{
				"patchline" : 				{
					"destination" : [ "obj-14", 0 ],
					"source" : [ "obj-2", 2 ]
				}

			}
, 			{
				"patchline" : 				{
					"destination" : [ "obj-15", 0 ],
					"source" : [ "obj-2", 1 ]
				}

			}
, 			{
				"patchline" : 				{
					"destination" : [ "obj-6", 0 ],
					"source" : [ "obj-2", 4 ]
				}

			}
, 			{
				"patchline" : 				{
					"destination" : [ "obj-12", 0 ],
					"source" : [ "obj-20", 0 ]
				}

			}
, 			{
				"patchline" : 				{
					"destination" : [ "obj-13", 0 ],
					"source" : [ "obj-20", 3 ]
				}

			}
, 			{
				"patchline" : 				{
					"destination" : [ "obj-14", 0 ],
					"source" : [ "obj-20", 2 ]
				}

			}
, 			{
				"patchline" : 				{
					"destination" : [ "obj-15", 0 ],
					"source" : [ "obj-20", 1 ]
				}

			}
, 			{
				"patchline" : 				{
					"destination" : [ "obj-6", 0 ],
					"source" : [ "obj-20", 4 ]
				}

			}
, 			{
				"patchline" : 				{
					"destination" : [ "obj-12", 0 ],
					"source" : [ "obj-21", 0 ]
				}

			}
, 			{
				"patchline" : 				{
					"destination" : [ "obj-13", 0 ],
					"source" : [ "obj-21", 3 ]
				}

			}
, 			{
				"patchline" : 				{
					"destination" : [ "obj-14", 0 ],
					"source" : [ "obj-21", 2 ]
				}

			}
, 			{
				"patchline" : 				{
					"destination" : [ "obj-15", 0 ],
					"source" : [ "obj-21", 1 ]
				}

			}
, 			{
				"patchline" : 				{
					"destination" : [ "obj-6", 0 ],
					"source" : [ "obj-21", 4 ]
				}

			}
, 			{
				"patchline" : 				{
					"destination" : [ "obj-12", 0 ],
					"source" : [ "obj-22", 0 ]
				}

			}
, 			{
				"patchline" : 				{
					"destination" : [ "obj-13", 0 ],
					"source" : [ "obj-22", 3 ]
				}

			}
, 			{
				"patchline" : 				{
					"destination" : [ "obj-14", 0 ],
					"source" : [ "obj-22", 2 ]
				}

			}
, 			{
				"patchline" : 				{
					"destination" : [ "obj-15", 0 ],
					"source" : [ "obj-22", 1 ]
				}

			}
, 			{
				"patchline" : 				{
					"destination" : [ "obj-6", 0 ],
					"source" : [ "obj-22", 4 ]
				}

			}
, 			{
				"patchline" : 				{
					"destination" : [ "obj-12", 0 ],
					"source" : [ "obj-23", 0 ]
				}

			}
, 			{
				"patchline" : 				{
					"destination" : [ "obj-13", 0 ],
					"source" : [ "obj-23", 3 ]
				}

			}
, 			{
				"patchline" : 				{
					"destination" : [ "obj-14", 0 ],
					"source" : [ "obj-23", 2 ]
				}

			}
, 			{
				"patchline" : 				{
					"destination" : [ "obj-15", 0 ],
					"source" : [ "obj-23", 1 ]
				}

			}
, 			{
				"patchline" : 				{
					"destination" : [ "obj-6", 0 ],
					"source" : [ "obj-23", 4 ]
				}

			}
, 			{
				"patchline" : 				{
					"destination" : [ "obj-12", 0 ],
					"source" : [ "obj-24", 0 ]
				}

			}
, 			{
				"patchline" : 				{
					"destination" : [ "obj-13", 0 ],
					"source" : [ "obj-24", 3 ]
				}

			}
, 			{
				"patchline" : 				{
					"destination" : [ "obj-14", 0 ],
					"source" : [ "obj-24", 2 ]
				}

			}
, 			{
				"patchline" : 				{
					"destination" : [ "obj-15", 0 ],
					"source" : [ "obj-24", 1 ]
				}

			}
, 			{
				"patchline" : 				{
					"destination" : [ "obj-6", 0 ],
					"source" : [ "obj-24", 4 ]
				}

			}
, 			{
				"patchline" : 				{
					"destination" : [ "obj-12", 0 ],
					"source" : [ "obj-25", 0 ]
				}

			}
, 			{
				"patchline" : 				{
					"destination" : [ "obj-13", 0 ],
					"source" : [ "obj-25", 3 ]
				}

			}
, 			{
				"patchline" : 				{
					"destination" : [ "obj-14", 0 ],
					"source" : [ "obj-25", 2 ]
				}

			}
, 			{
				"patchline" : 				{
					"destination" : [ "obj-15", 0 ],
					"source" : [ "obj-25", 1 ]
				}

			}
, 			{
				"patchline" : 				{
					"destination" : [ "obj-6", 0 ],
					"source" : [ "obj-25", 4 ]
				}

			}
, 			{
				"patchline" : 				{
					"destination" : [ "obj-12", 0 ],
					"source" : [ "obj-26", 0 ]
				}

			}
, 			{
				"patchline" : 				{
					"destination" : [ "obj-13", 0 ],
					"source" : [ "obj-26", 3 ]
				}

			}
, 			{
				"patchline" : 				{
					"destination" : [ "obj-14", 0 ],
					"source" : [ "obj-26", 2 ]
				}

			}
, 			{
				"patchline" : 				{
					"destination" : [ "obj-15", 0 ],
					"source" : [ "obj-26", 1 ]
				}

			}
, 			{
				"patchline" : 				{
					"destination" : [ "obj-6", 0 ],
					"source" : [ "obj-26", 4 ]
				}

			}
, 			{
				"patchline" : 				{
					"destination" : [ "obj-12", 0 ],
					"source" : [ "obj-27", 0 ]
				}

			}
, 			{
				"patchline" : 				{
					"destination" : [ "obj-13", 0 ],
					"source" : [ "obj-27", 3 ]
				}

			}
, 			{
				"patchline" : 				{
					"destination" : [ "obj-14", 0 ],
					"source" : [ "obj-27", 2 ]
				}

			}
, 			{
				"patchline" : 				{
					"destination" : [ "obj-15", 0 ],
					"source" : [ "obj-27", 1 ]
				}

			}
, 			{
				"patchline" : 				{
					"destination" : [ "obj-6", 0 ],
					"source" : [ "obj-27", 4 ]
				}

			}
, 			{
				"patchline" : 				{
					"destination" : [ "obj-12", 0 ],
					"source" : [ "obj-3", 0 ]
				}

			}
, 			{
				"patchline" : 				{
					"destination" : [ "obj-13", 0 ],
					"source" : [ "obj-3", 3 ]
				}

			}
, 			{
				"patchline" : 				{
					"destination" : [ "obj-15", 0 ],
					"source" : [ "obj-3", 1 ]
				}

			}
, 			{
				"patchline" : 				{
					"destination" : [ "obj-6", 0 ],
					"source" : [ "obj-3", 4 ]
				}

			}
, 			{
				"patchline" : 				{
					"destination" : [ "obj-12", 0 ],
					"source" : [ "obj-4", 0 ]
				}

			}
, 			{
				"patchline" : 				{
					"destination" : [ "obj-13", 0 ],
					"source" : [ "obj-4", 3 ]
				}

			}
, 			{
				"patchline" : 				{
					"destination" : [ "obj-14", 0 ],
					"source" : [ "obj-4", 2 ]
				}

			}
, 			{
				"patchline" : 				{
					"destination" : [ "obj-15", 0 ],
					"source" : [ "obj-4", 1 ]
				}

			}
, 			{
				"patchline" : 				{
					"destination" : [ "obj-6", 0 ],
					"source" : [ "obj-4", 4 ]
				}

			}
, 			{
				"patchline" : 				{
					"destination" : [ "obj-12", 0 ],
					"source" : [ "obj-5", 0 ]
				}

			}
, 			{
				"patchline" : 				{
					"destination" : [ "obj-13", 0 ],
					"source" : [ "obj-5", 3 ]
				}

			}
, 			{
				"patchline" : 				{
					"destination" : [ "obj-14", 0 ],
					"source" : [ "obj-5", 2 ]
				}

			}
, 			{
				"patchline" : 				{
					"destination" : [ "obj-15", 0 ],
					"source" : [ "obj-5", 1 ]
				}

			}
, 			{
				"patchline" : 				{
					"destination" : [ "obj-6", 0 ],
					"source" : [ "obj-5", 4 ]
				}

			}
, 			{
				"patchline" : 				{
					"destination" : [ "obj-1", 0 ],
					"midpoints" : [ 663.375, 558.5, 451.5, 558.5 ],
					"source" : [ "obj-6", 15 ]
				}

			}
, 			{
				"patchline" : 				{
					"destination" : [ "obj-1", 0 ],
					"midpoints" : [ 649.25, 558.5, 451.5, 558.5 ],
					"source" : [ "obj-6", 14 ]
				}

			}
, 			{
				"patchline" : 				{
					"destination" : [ "obj-1", 0 ],
					"midpoints" : [ 635.125, 558.5, 451.5, 558.5 ],
					"source" : [ "obj-6", 13 ]
				}

			}
, 			{
				"patchline" : 				{
					"destination" : [ "obj-1", 0 ],
					"midpoints" : [ 621.0, 558.5, 451.5, 558.5 ],
					"source" : [ "obj-6", 12 ]
				}

			}
, 			{
				"patchline" : 				{
					"destination" : [ "obj-1", 0 ],
					"midpoints" : [ 606.875, 558.5, 451.5, 558.5 ],
					"source" : [ "obj-6", 11 ]
				}

			}
, 			{
				"patchline" : 				{
					"destination" : [ "obj-1", 0 ],
					"midpoints" : [ 592.75, 558.5, 451.5, 558.5 ],
					"source" : [ "obj-6", 10 ]
				}

			}
, 			{
				"patchline" : 				{
					"destination" : [ "obj-1", 0 ],
					"midpoints" : [ 578.625, 558.5, 451.5, 558.5 ],
					"source" : [ "obj-6", 9 ]
				}

			}
, 			{
				"patchline" : 				{
					"destination" : [ "obj-1", 0 ],
					"midpoints" : [ 564.5, 558.5, 451.5, 558.5 ],
					"source" : [ "obj-6", 8 ]
				}

			}
, 			{
				"patchline" : 				{
					"destination" : [ "obj-1", 0 ],
					"midpoints" : [ 550.375, 558.5, 451.5, 558.5 ],
					"source" : [ "obj-6", 7 ]
				}

			}
, 			{
				"patchline" : 				{
					"destination" : [ "obj-1", 0 ],
					"midpoints" : [ 536.25, 558.5, 451.5, 558.5 ],
					"source" : [ "obj-6", 6 ]
				}

			}
, 			{
				"patchline" : 				{
					"destination" : [ "obj-1", 0 ],
					"midpoints" : [ 522.125, 558.5, 451.5, 558.5 ],
					"source" : [ "obj-6", 5 ]
				}

			}
, 			{
				"patchline" : 				{
					"destination" : [ "obj-1", 0 ],
					"midpoints" : [ 508.0, 558.5, 451.5, 558.5 ],
					"source" : [ "obj-6", 4 ]
				}

			}
, 			{
				"patchline" : 				{
					"destination" : [ "obj-1", 0 ],
					"midpoints" : [ 493.875, 558.5, 451.5, 558.5 ],
					"source" : [ "obj-6", 3 ]
				}

			}
, 			{
				"patchline" : 				{
					"destination" : [ "obj-1", 0 ],
					"midpoints" : [ 479.75, 558.5, 451.5, 558.5 ],
					"source" : [ "obj-6", 2 ]
				}

			}
, 			{
				"patchline" : 				{
					"destination" : [ "obj-1", 0 ],
					"midpoints" : [ 465.625, 558.5, 451.5, 558.5 ],
					"source" : [ "obj-6", 1 ]
				}

			}
, 			{
				"patchline" : 				{
					"destination" : [ "obj-1", 0 ],
					"midpoints" : [ 451.5, 558.5, 451.5, 558.5 ],
					"source" : [ "obj-6", 0 ]
				}

			}
, 			{
				"patchline" : 				{
					"destination" : [ "obj-12", 0 ],
					"source" : [ "obj-7", 0 ]
				}

			}
, 			{
				"patchline" : 				{
					"destination" : [ "obj-13", 0 ],
					"source" : [ "obj-7", 3 ]
				}

			}
, 			{
				"patchline" : 				{
					"destination" : [ "obj-14", 0 ],
					"source" : [ "obj-7", 2 ]
				}

			}
, 			{
				"patchline" : 				{
					"destination" : [ "obj-15", 0 ],
					"source" : [ "obj-7", 1 ]
				}

			}
, 			{
				"patchline" : 				{
					"destination" : [ "obj-6", 0 ],
					"source" : [ "obj-7", 4 ]
				}

			}
, 			{
				"patchline" : 				{
					"destination" : [ "obj-12", 0 ],
					"source" : [ "obj-8", 0 ]
				}

			}
, 			{
				"patchline" : 				{
					"destination" : [ "obj-13", 0 ],
					"source" : [ "obj-8", 3 ]
				}

			}
, 			{
				"patchline" : 				{
					"destination" : [ "obj-14", 0 ],
					"source" : [ "obj-8", 2 ]
				}

			}
, 			{
				"patchline" : 				{
					"destination" : [ "obj-15", 0 ],
					"source" : [ "obj-8", 1 ]
				}

			}
, 			{
				"patchline" : 				{
					"destination" : [ "obj-6", 0 ],
					"source" : [ "obj-8", 4 ]
				}

			}
, 			{
				"patchline" : 				{
					"destination" : [ "obj-12", 0 ],
					"source" : [ "obj-9", 0 ]
				}

			}
, 			{
				"patchline" : 				{
					"destination" : [ "obj-13", 0 ],
					"source" : [ "obj-9", 3 ]
				}

			}
, 			{
				"patchline" : 				{
					"destination" : [ "obj-14", 0 ],
					"source" : [ "obj-9", 2 ]
				}

			}
, 			{
				"patchline" : 				{
					"destination" : [ "obj-15", 0 ],
					"source" : [ "obj-9", 1 ]
				}

			}
, 			{
				"patchline" : 				{
					"destination" : [ "obj-6", 0 ],
					"source" : [ "obj-9", 4 ]
				}

			}
 ],
		"parameters" : 		{
			"obj-10::obj-26" : [ "probability-one[15]", "probability-one", 0 ],
			"obj-10::obj-4" : [ "live.numbox[7]", "live.numbox", 0 ],
			"obj-10::obj-47::obj-23" : [ "probability-zero[7]", "probability-zero", 0 ],
			"obj-10::obj-47::obj-26" : [ "probability-one[14]", "probability-one", 0 ],
			"obj-10::obj-5" : [ "pitch[7]", "pitch", 0 ],
			"obj-20::obj-26" : [ "probability-one[17]", "probability-one", 0 ],
			"obj-20::obj-4" : [ "live.numbox[8]", "live.numbox", 0 ],
			"obj-20::obj-47::obj-23" : [ "probability-zero[8]", "probability-zero", 0 ],
			"obj-20::obj-47::obj-26" : [ "probability-one[16]", "probability-one", 0 ],
			"obj-20::obj-5" : [ "pitch[8]", "pitch", 0 ],
			"obj-21::obj-26" : [ "probability-one[19]", "probability-one", 0 ],
			"obj-21::obj-4" : [ "live.numbox[9]", "live.numbox", 0 ],
			"obj-21::obj-47::obj-23" : [ "probability-zero[9]", "probability-zero", 0 ],
			"obj-21::obj-47::obj-26" : [ "probability-one[18]", "probability-one", 0 ],
			"obj-21::obj-5" : [ "pitch[9]", "pitch", 0 ],
			"obj-22::obj-26" : [ "probability-one[21]", "probability-one", 0 ],
			"obj-22::obj-4" : [ "live.numbox[10]", "live.numbox", 0 ],
			"obj-22::obj-47::obj-23" : [ "probability-zero[10]", "probability-zero", 0 ],
			"obj-22::obj-47::obj-26" : [ "probability-one[20]", "probability-one", 0 ],
			"obj-22::obj-5" : [ "pitch[10]", "pitch", 0 ],
			"obj-23::obj-26" : [ "probability-one[23]", "probability-one", 0 ],
			"obj-23::obj-4" : [ "live.numbox[11]", "live.numbox", 0 ],
			"obj-23::obj-47::obj-23" : [ "probability-zero[11]", "probability-zero", 0 ],
			"obj-23::obj-47::obj-26" : [ "probability-one[22]", "probability-one", 0 ],
			"obj-23::obj-5" : [ "pitch[11]", "pitch", 0 ],
			"obj-24::obj-26" : [ "probability-one[25]", "probability-one", 0 ],
			"obj-24::obj-4" : [ "live.numbox[12]", "live.numbox", 0 ],
			"obj-24::obj-47::obj-23" : [ "probability-zero[12]", "probability-zero", 0 ],
			"obj-24::obj-47::obj-26" : [ "probability-one[24]", "probability-one", 0 ],
			"obj-24::obj-5" : [ "pitch[12]", "pitch", 0 ],
			"obj-25::obj-26" : [ "probability-one[27]", "probability-one", 0 ],
			"obj-25::obj-4" : [ "live.numbox[13]", "live.numbox", 0 ],
			"obj-25::obj-47::obj-23" : [ "probability-zero[13]", "probability-zero", 0 ],
			"obj-25::obj-47::obj-26" : [ "probability-one[26]", "probability-one", 0 ],
			"obj-25::obj-5" : [ "pitch[13]", "pitch", 0 ],
			"obj-26::obj-26" : [ "probability-one[29]", "probability-one", 0 ],
			"obj-26::obj-4" : [ "live.numbox[14]", "live.numbox", 0 ],
			"obj-26::obj-47::obj-23" : [ "probability-zero[14]", "probability-zero", 0 ],
			"obj-26::obj-47::obj-26" : [ "probability-one[28]", "probability-one", 0 ],
			"obj-26::obj-5" : [ "pitch[14]", "pitch", 0 ],
			"obj-27::obj-26" : [ "probability-one[31]", "probability-one", 0 ],
			"obj-27::obj-4" : [ "live.numbox[15]", "live.numbox", 0 ],
			"obj-27::obj-47::obj-23" : [ "probability-zero[15]", "probability-zero", 0 ],
			"obj-27::obj-47::obj-26" : [ "probability-one[30]", "probability-one", 0 ],
			"obj-27::obj-5" : [ "pitch[15]", "pitch", 0 ],
			"obj-2::obj-26" : [ "probability-one[1]", "probability-one", 0 ],
			"obj-2::obj-4" : [ "live.numbox", "live.numbox", 0 ],
			"obj-2::obj-47::obj-23" : [ "probability-zero", "probability-zero", 0 ],
			"obj-2::obj-47::obj-26" : [ "probability-one", "probability-one", 0 ],
			"obj-2::obj-5" : [ "pitch", "pitch", 0 ],
			"obj-3::obj-26" : [ "probability-one[7]", "probability-one", 0 ],
			"obj-3::obj-4" : [ "live.numbox[3]", "live.numbox", 0 ],
			"obj-3::obj-47::obj-23" : [ "probability-zero[3]", "probability-zero", 0 ],
			"obj-3::obj-47::obj-26" : [ "probability-one[6]", "probability-one", 0 ],
			"obj-3::obj-5" : [ "pitch[3]", "pitch", 0 ],
			"obj-4::obj-26" : [ "probability-one[3]", "probability-one", 0 ],
			"obj-4::obj-4" : [ "live.numbox[1]", "live.numbox", 0 ],
			"obj-4::obj-47::obj-23" : [ "probability-zero[1]", "probability-zero", 0 ],
			"obj-4::obj-47::obj-26" : [ "probability-one[2]", "probability-one", 0 ],
			"obj-4::obj-5" : [ "pitch[1]", "pitch", 0 ],
			"obj-5::obj-26" : [ "probability-one[5]", "probability-one", 0 ],
			"obj-5::obj-4" : [ "live.numbox[2]", "live.numbox", 0 ],
			"obj-5::obj-47::obj-23" : [ "probability-zero[2]", "probability-zero", 0 ],
			"obj-5::obj-47::obj-26" : [ "probability-one[4]", "probability-one", 0 ],
			"obj-5::obj-5" : [ "pitch[2]", "pitch", 0 ],
			"obj-7::obj-26" : [ "probability-one[9]", "probability-one", 0 ],
			"obj-7::obj-4" : [ "live.numbox[4]", "live.numbox", 0 ],
			"obj-7::obj-47::obj-23" : [ "probability-zero[4]", "probability-zero", 0 ],
			"obj-7::obj-47::obj-26" : [ "probability-one[8]", "probability-one", 0 ],
			"obj-7::obj-5" : [ "pitch[4]", "pitch", 0 ],
			"obj-8::obj-26" : [ "probability-one[11]", "probability-one", 0 ],
			"obj-8::obj-4" : [ "live.numbox[5]", "live.numbox", 0 ],
			"obj-8::obj-47::obj-23" : [ "probability-zero[5]", "probability-zero", 0 ],
			"obj-8::obj-47::obj-26" : [ "probability-one[10]", "probability-one", 0 ],
			"obj-8::obj-5" : [ "pitch[5]", "pitch", 0 ],
			"obj-9::obj-26" : [ "probability-one[13]", "probability-one", 0 ],
			"obj-9::obj-4" : [ "live.numbox[6]", "live.numbox", 0 ],
			"obj-9::obj-47::obj-23" : [ "probability-zero[6]", "probability-zero", 0 ],
			"obj-9::obj-47::obj-26" : [ "probability-one[12]", "probability-one", 0 ],
			"obj-9::obj-5" : [ "pitch[6]", "pitch", 0 ],
			"parameterbanks" : 			{

			}
,
			"parameter_overrides" : 			{
				"obj-10::obj-26" : 				{
					"parameter_longname" : "probability-one[15]"
				}
,
				"obj-10::obj-4" : 				{
					"parameter_longname" : "live.numbox[7]"
				}
,
				"obj-10::obj-47::obj-23" : 				{
					"parameter_longname" : "probability-zero[7]"
				}
,
				"obj-10::obj-47::obj-26" : 				{
					"parameter_longname" : "probability-one[14]"
				}
,
				"obj-10::obj-5" : 				{
					"parameter_longname" : "pitch[7]"
				}
,
				"obj-20::obj-26" : 				{
					"parameter_longname" : "probability-one[17]"
				}
,
				"obj-20::obj-4" : 				{
					"parameter_longname" : "live.numbox[8]"
				}
,
				"obj-20::obj-47::obj-23" : 				{
					"parameter_longname" : "probability-zero[8]"
				}
,
				"obj-20::obj-47::obj-26" : 				{
					"parameter_longname" : "probability-one[16]"
				}
,
				"obj-20::obj-5" : 				{
					"parameter_longname" : "pitch[8]"
				}
,
				"obj-21::obj-26" : 				{
					"parameter_longname" : "probability-one[19]"
				}
,
				"obj-21::obj-4" : 				{
					"parameter_longname" : "live.numbox[9]"
				}
,
				"obj-21::obj-47::obj-23" : 				{
					"parameter_longname" : "probability-zero[9]"
				}
,
				"obj-21::obj-47::obj-26" : 				{
					"parameter_longname" : "probability-one[18]"
				}
,
				"obj-21::obj-5" : 				{
					"parameter_longname" : "pitch[9]"
				}
,
				"obj-22::obj-26" : 				{
					"parameter_longname" : "probability-one[21]"
				}
,
				"obj-22::obj-4" : 				{
					"parameter_longname" : "live.numbox[10]"
				}
,
				"obj-22::obj-47::obj-23" : 				{
					"parameter_longname" : "probability-zero[10]"
				}
,
				"obj-22::obj-47::obj-26" : 				{
					"parameter_longname" : "probability-one[20]"
				}
,
				"obj-22::obj-5" : 				{
					"parameter_longname" : "pitch[10]"
				}
,
				"obj-23::obj-26" : 				{
					"parameter_longname" : "probability-one[23]"
				}
,
				"obj-23::obj-4" : 				{
					"parameter_longname" : "live.numbox[11]"
				}
,
				"obj-23::obj-47::obj-23" : 				{
					"parameter_longname" : "probability-zero[11]"
				}
,
				"obj-23::obj-47::obj-26" : 				{
					"parameter_longname" : "probability-one[22]"
				}
,
				"obj-23::obj-5" : 				{
					"parameter_longname" : "pitch[11]"
				}
,
				"obj-24::obj-26" : 				{
					"parameter_longname" : "probability-one[25]"
				}
,
				"obj-24::obj-4" : 				{
					"parameter_longname" : "live.numbox[12]"
				}
,
				"obj-24::obj-47::obj-23" : 				{
					"parameter_longname" : "probability-zero[12]"
				}
,
				"obj-24::obj-47::obj-26" : 				{
					"parameter_longname" : "probability-one[24]"
				}
,
				"obj-24::obj-5" : 				{
					"parameter_longname" : "pitch[12]"
				}
,
				"obj-25::obj-26" : 				{
					"parameter_longname" : "probability-one[27]"
				}
,
				"obj-25::obj-4" : 				{
					"parameter_longname" : "live.numbox[13]"
				}
,
				"obj-25::obj-47::obj-23" : 				{
					"parameter_longname" : "probability-zero[13]"
				}
,
				"obj-25::obj-47::obj-26" : 				{
					"parameter_longname" : "probability-one[26]"
				}
,
				"obj-25::obj-5" : 				{
					"parameter_longname" : "pitch[13]"
				}
,
				"obj-26::obj-26" : 				{
					"parameter_longname" : "probability-one[29]"
				}
,
				"obj-26::obj-4" : 				{
					"parameter_longname" : "live.numbox[14]"
				}
,
				"obj-26::obj-47::obj-23" : 				{
					"parameter_longname" : "probability-zero[14]"
				}
,
				"obj-26::obj-47::obj-26" : 				{
					"parameter_longname" : "probability-one[28]"
				}
,
				"obj-26::obj-5" : 				{
					"parameter_longname" : "pitch[14]"
				}
,
				"obj-27::obj-26" : 				{
					"parameter_longname" : "probability-one[31]"
				}
,
				"obj-27::obj-4" : 				{
					"parameter_longname" : "live.numbox[15]"
				}
,
				"obj-27::obj-47::obj-23" : 				{
					"parameter_longname" : "probability-zero[15]"
				}
,
				"obj-27::obj-47::obj-26" : 				{
					"parameter_longname" : "probability-one[30]"
				}
,
				"obj-27::obj-5" : 				{
					"parameter_longname" : "pitch[15]"
				}
,
				"obj-3::obj-26" : 				{
					"parameter_longname" : "probability-one[7]"
				}
,
				"obj-3::obj-4" : 				{
					"parameter_longname" : "live.numbox[3]"
				}
,
				"obj-3::obj-47::obj-23" : 				{
					"parameter_longname" : "probability-zero[3]"
				}
,
				"obj-3::obj-47::obj-26" : 				{
					"parameter_longname" : "probability-one[6]"
				}
,
				"obj-3::obj-5" : 				{
					"parameter_longname" : "pitch[3]"
				}
,
				"obj-4::obj-26" : 				{
					"parameter_longname" : "probability-one[3]"
				}
,
				"obj-4::obj-4" : 				{
					"parameter_longname" : "live.numbox[1]"
				}
,
				"obj-4::obj-47::obj-23" : 				{
					"parameter_longname" : "probability-zero[1]"
				}
,
				"obj-4::obj-47::obj-26" : 				{
					"parameter_longname" : "probability-one[2]"
				}
,
				"obj-4::obj-5" : 				{
					"parameter_longname" : "pitch[1]"
				}
,
				"obj-5::obj-26" : 				{
					"parameter_longname" : "probability-one[5]"
				}
,
				"obj-5::obj-4" : 				{
					"parameter_longname" : "live.numbox[2]"
				}
,
				"obj-5::obj-47::obj-23" : 				{
					"parameter_longname" : "probability-zero[2]"
				}
,
				"obj-5::obj-47::obj-26" : 				{
					"parameter_longname" : "probability-one[4]"
				}
,
				"obj-5::obj-5" : 				{
					"parameter_longname" : "pitch[2]"
				}
,
				"obj-7::obj-26" : 				{
					"parameter_longname" : "probability-one[9]"
				}
,
				"obj-7::obj-4" : 				{
					"parameter_longname" : "live.numbox[4]"
				}
,
				"obj-7::obj-47::obj-23" : 				{
					"parameter_longname" : "probability-zero[4]"
				}
,
				"obj-7::obj-47::obj-26" : 				{
					"parameter_longname" : "probability-one[8]"
				}
,
				"obj-7::obj-5" : 				{
					"parameter_longname" : "pitch[4]"
				}
,
				"obj-8::obj-26" : 				{
					"parameter_longname" : "probability-one[11]"
				}
,
				"obj-8::obj-4" : 				{
					"parameter_longname" : "live.numbox[5]"
				}
,
				"obj-8::obj-47::obj-23" : 				{
					"parameter_longname" : "probability-zero[5]"
				}
,
				"obj-8::obj-47::obj-26" : 				{
					"parameter_longname" : "probability-one[10]"
				}
,
				"obj-8::obj-5" : 				{
					"parameter_longname" : "pitch[5]"
				}
,
				"obj-9::obj-26" : 				{
					"parameter_longname" : "probability-one[13]"
				}
,
				"obj-9::obj-4" : 				{
					"parameter_longname" : "live.numbox[6]"
				}
,
				"obj-9::obj-47::obj-23" : 				{
					"parameter_longname" : "probability-zero[6]"
				}
,
				"obj-9::obj-47::obj-26" : 				{
					"parameter_longname" : "probability-one[12]"
				}
,
				"obj-9::obj-5" : 				{
					"parameter_longname" : "pitch[6]"
				}

			}
,
			"inherited_shortname" : 1
		}
,
		"dependency_cache" : [ 			{
				"name" : "bve.patterns_step.maxpat",
				"bootpath" : "~/Google Drive/User Presets/M4L/BVE/bve.patterns",
				"patcherrelativepath" : ".",
				"type" : "JSON",
				"implicit" : 1
			}
 ],
		"autosave" : 0,
		"styles" : [ 			{
				"name" : "AudioStatus_Menu",
				"default" : 				{
					"bgfillcolor" : 					{
						"type" : "color",
						"color" : [ 0.294118, 0.313726, 0.337255, 1 ],
						"color1" : [ 0.454902, 0.462745, 0.482353, 0.0 ],
						"color2" : [ 0.290196, 0.309804, 0.301961, 1.0 ],
						"angle" : 270.0,
						"proportion" : 0.39,
						"autogradient" : 0
					}

				}
,
				"parentstyle" : "",
				"multi" : 0
			}
, 			{
				"name" : "Luca",
				"default" : 				{
					"textcolor_inverse" : [ 0.239216, 0.254902, 0.278431, 1.0 ],
					"color" : [ 0.475135, 0.293895, 0.251069, 1.0 ],
					"bgfillcolor" : 					{
						"type" : "gradient",
						"color" : [ 0.290196, 0.309804, 0.301961, 1.0 ],
						"color1" : [ 0.862745, 0.870588, 0.878431, 1.0 ],
						"color2" : [ 0.65098, 0.666667, 0.662745, 1.0 ],
						"angle" : 270.0,
						"proportion" : 0.39,
						"autogradient" : 0
					}
,
					"fontname" : [ "Open Sans Semibold" ],
					"accentcolor" : [ 0.32549, 0.345098, 0.372549, 1.0 ],
					"selectioncolor" : [ 0.720698, 0.16723, 0.080014, 1.0 ],
					"elementcolor" : [ 0.786675, 0.801885, 0.845022, 1.0 ],
					"bgcolor" : [ 0.904179, 0.895477, 0.842975, 0.56 ]
				}
,
				"parentstyle" : "",
				"multi" : 0
			}
, 			{
				"name" : "dark-night-patch",
				"default" : 				{
					"textcolor" : [ 0.862745, 0.870588, 0.878431, 1.0 ],
					"patchlinecolor" : [ 0.439216, 0.74902, 0.254902, 0.898039 ],
					"bgfillcolor" : 					{
						"type" : "gradient",
						"color1" : [ 0.376471, 0.384314, 0.4, 1.0 ],
						"color2" : [ 0.290196, 0.309804, 0.301961, 1.0 ],
						"color" : [ 0.290196, 0.309804, 0.301961, 1.0 ],
						"angle" : 270.0,
						"proportion" : 0.39
					}
,
					"accentcolor" : [ 0.952941, 0.564706, 0.098039, 1.0 ]
				}
,
				"parentstyle" : "",
				"multi" : 0
			}
, 			{
				"name" : "helpfile_label-1",
				"default" : 				{
					"textcolor" : [ 0.501961, 0.501961, 0.501961, 1 ],
					"fontsize" : [ 13 ],
					"fontname" : [ "Arial" ]
				}
,
				"parentstyle" : "",
				"multi" : 0
			}
, 			{
				"name" : "newobjYellow-1",
				"default" : 				{
					"fontsize" : [ 12.059008 ],
					"accentcolor" : [ 0.82517, 0.78181, 0.059545, 1.0 ]
				}
,
				"parentstyle" : "",
				"multi" : 0
			}
, 			{
				"name" : "numberGold-1",
				"default" : 				{
					"accentcolor" : [ 0.764706, 0.592157, 0.101961, 1.0 ]
				}
,
				"parentstyle" : "",
				"multi" : 0
			}
 ]
	}

}
