{
	"patcher" : 	{
		"fileversion" : 1,
		"appversion" : 		{
			"major" : 8,
			"minor" : 1,
			"revision" : 8,
			"architecture" : "x64",
			"modernui" : 1
		}
,
		"classnamespace" : "box",
		"rect" : [ 59.0, 104.0, 640.0, 480.0 ],
		"bglocked" : 0,
		"openinpresentation" : 1,
		"default_fontsize" : 12.0,
		"default_fontface" : 0,
		"default_fontname" : "Arial",
		"gridonopen" : 1,
		"gridsize" : [ 15.0, 15.0 ],
		"gridsnaponopen" : 1,
		"objectsnaponopen" : 1,
		"statusbarvisible" : 2,
		"toolbarvisible" : 1,
		"lefttoolbarpinned" : 0,
		"toptoolbarpinned" : 0,
		"righttoolbarpinned" : 0,
		"bottomtoolbarpinned" : 0,
		"toolbars_unpinned_last_save" : 0,
		"tallnewobj" : 0,
		"boxanimatetime" : 200,
		"enablehscroll" : 1,
		"enablevscroll" : 1,
		"devicewidth" : 0.0,
		"description" : "",
		"digest" : "",
		"tags" : "",
		"style" : "",
		"subpatcher_template" : "",
		"assistshowspatchername" : 0,
		"boxes" : [ 			{
				"box" : 				{
					"comment" : "",
					"id" : "obj-7",
					"index" : 0,
					"maxclass" : "outlet",
					"numinlets" : 1,
					"numoutlets" : 0,
					"patching_rect" : [ 1687.0, 900.0, 30.0, 30.0 ]
				}

			}
, 			{
				"box" : 				{
					"comment" : "",
					"id" : "obj-6",
					"index" : 0,
					"maxclass" : "outlet",
					"numinlets" : 1,
					"numoutlets" : 0,
					"patching_rect" : [ 240.0, 889.0, 30.0, 30.0 ]
				}

			}
, 			{
				"box" : 				{
					"comment" : "",
					"id" : "obj-5",
					"index" : 0,
					"maxclass" : "outlet",
					"numinlets" : 1,
					"numoutlets" : 0,
					"patching_rect" : [ 200.0, 889.0, 30.0, 30.0 ]
				}

			}
, 			{
				"box" : 				{
					"comment" : "",
					"id" : "obj-4",
					"index" : 0,
					"maxclass" : "inlet",
					"numinlets" : 0,
					"numoutlets" : 1,
					"outlettype" : [ "" ],
					"patching_rect" : [ 571.0, 517.0, 30.0, 30.0 ]
				}

			}
, 			{
				"box" : 				{
					"comment" : "",
					"id" : "obj-3",
					"index" : 0,
					"maxclass" : "inlet",
					"numinlets" : 0,
					"numoutlets" : 1,
					"outlettype" : [ "" ],
					"patching_rect" : [ 303.0, 517.0, 30.0, 30.0 ]
				}

			}
, 			{
				"box" : 				{
					"comment" : "",
					"id" : "obj-2",
					"index" : 0,
					"maxclass" : "inlet",
					"numinlets" : 0,
					"numoutlets" : 1,
					"outlettype" : [ "" ],
					"patching_rect" : [ 122.0, 517.0, 30.0, 30.0 ]
				}

			}
, 			{
				"box" : 				{
					"args" : [ 8 ],
					"bgmode" : 0,
					"border" : 0,
					"clickthrough" : 0,
					"enablehscroll" : 0,
					"enablevscroll" : 0,
					"id" : "obj-75",
					"lockeddragscroll" : 0,
					"maxclass" : "bpatcher",
					"name" : "bvefilterstep.maxpat",
					"numinlets" : 3,
					"numoutlets" : 3,
					"offset" : [ 0.0, 0.0 ],
					"outlettype" : [ "signal", "signal", "" ],
					"patching_rect" : [ 1530.0, 682.0, 176.0, 75.0 ],
					"presentation" : 1,
					"presentation_rect" : [ 528.0, 74.0, 175.0, 72.0 ],
					"varname" : "bvefilterstep[6]",
					"viewvisibility" : 1
				}

			}
, 			{
				"box" : 				{
					"args" : [ 7 ],
					"bgmode" : 0,
					"border" : 0,
					"clickthrough" : 0,
					"enablehscroll" : 0,
					"enablevscroll" : 0,
					"id" : "obj-76",
					"lockeddragscroll" : 0,
					"maxclass" : "bpatcher",
					"name" : "bvefilterstep.maxpat",
					"numinlets" : 3,
					"numoutlets" : 3,
					"offset" : [ 0.0, 0.0 ],
					"outlettype" : [ "signal", "signal", "" ],
					"patching_rect" : [ 1329.0, 682.0, 176.0, 75.0 ],
					"presentation" : 1,
					"presentation_rect" : [ 352.0, 74.0, 175.0, 72.0 ],
					"varname" : "bvefilterstep[7]",
					"viewvisibility" : 1
				}

			}
, 			{
				"box" : 				{
					"args" : [ 6 ],
					"bgmode" : 0,
					"border" : 0,
					"clickthrough" : 0,
					"enablehscroll" : 0,
					"enablevscroll" : 0,
					"id" : "obj-72",
					"lockeddragscroll" : 0,
					"maxclass" : "bpatcher",
					"name" : "bvefilterstep.maxpat",
					"numinlets" : 3,
					"numoutlets" : 3,
					"offset" : [ 0.0, 0.0 ],
					"outlettype" : [ "signal", "signal", "" ],
					"patching_rect" : [ 1128.0, 682.0, 176.0, 75.0 ],
					"presentation" : 1,
					"presentation_rect" : [ 176.0, 74.0, 175.0, 72.0 ],
					"varname" : "bvefilterstep[3]",
					"viewvisibility" : 1
				}

			}
, 			{
				"box" : 				{
					"args" : [ 5 ],
					"bgmode" : 0,
					"border" : 0,
					"clickthrough" : 0,
					"enablehscroll" : 0,
					"enablevscroll" : 0,
					"id" : "obj-73",
					"lockeddragscroll" : 0,
					"maxclass" : "bpatcher",
					"name" : "bvefilterstep.maxpat",
					"numinlets" : 3,
					"numoutlets" : 3,
					"offset" : [ 0.0, 0.0 ],
					"outlettype" : [ "signal", "signal", "" ],
					"patching_rect" : [ 927.0, 682.0, 176.0, 75.0 ],
					"presentation" : 1,
					"presentation_rect" : [ 0.0, 74.0, 175.0, 72.0 ],
					"varname" : "bvefilterstep[4]",
					"viewvisibility" : 1
				}

			}
, 			{
				"box" : 				{
					"args" : [ 4 ],
					"bgmode" : 0,
					"border" : 0,
					"clickthrough" : 0,
					"enablehscroll" : 0,
					"enablevscroll" : 0,
					"id" : "obj-74",
					"lockeddragscroll" : 0,
					"maxclass" : "bpatcher",
					"name" : "bvefilterstep.maxpat",
					"numinlets" : 3,
					"numoutlets" : 3,
					"offset" : [ 0.0, 0.0 ],
					"outlettype" : [ "signal", "signal", "" ],
					"patching_rect" : [ 726.0, 682.0, 176.0, 75.0 ],
					"presentation" : 1,
					"presentation_rect" : [ 528.0, 0.0, 175.0, 72.0 ],
					"varname" : "bvefilterstep[5]",
					"viewvisibility" : 1
				}

			}
, 			{
				"box" : 				{
					"args" : [ 3 ],
					"bgmode" : 0,
					"border" : 0,
					"clickthrough" : 0,
					"enablehscroll" : 0,
					"enablevscroll" : 0,
					"id" : "obj-71",
					"lockeddragscroll" : 0,
					"maxclass" : "bpatcher",
					"name" : "bvefilterstep.maxpat",
					"numinlets" : 3,
					"numoutlets" : 3,
					"offset" : [ 0.0, 0.0 ],
					"outlettype" : [ "signal", "signal", "" ],
					"patching_rect" : [ 524.0, 682.0, 176.0, 75.0 ],
					"presentation" : 1,
					"presentation_rect" : [ 352.0, 0.0, 175.0, 72.0 ],
					"varname" : "bvefilterstep[2]",
					"viewvisibility" : 1
				}

			}
, 			{
				"box" : 				{
					"args" : [ 2 ],
					"bgmode" : 0,
					"border" : 0,
					"clickthrough" : 0,
					"enablehscroll" : 0,
					"enablevscroll" : 0,
					"id" : "obj-53",
					"lockeddragscroll" : 0,
					"maxclass" : "bpatcher",
					"name" : "bvefilterstep.maxpat",
					"numinlets" : 3,
					"numoutlets" : 3,
					"offset" : [ 0.0, 0.0 ],
					"outlettype" : [ "signal", "signal", "" ],
					"patching_rect" : [ 323.0, 682.0, 176.0, 75.0 ],
					"presentation" : 1,
					"presentation_rect" : [ 176.0, 0.0, 175.0, 72.0 ],
					"varname" : "bvefilterstep[1]",
					"viewvisibility" : 1
				}

			}
, 			{
				"box" : 				{
					"id" : "obj-51",
					"maxclass" : "newobj",
					"numinlets" : 1,
					"numoutlets" : 9,
					"outlettype" : [ "signal", "signal", "signal", "signal", "signal", "signal", "signal", "signal", "list" ],
					"patching_rect" : [ 303.0, 615.0, 134.0, 22.0 ],
					"text" : "matrix~ 1 8 1. @ramp 0"
				}

			}
, 			{
				"box" : 				{
					"id" : "obj-44",
					"maxclass" : "newobj",
					"numinlets" : 1,
					"numoutlets" : 9,
					"outlettype" : [ "signal", "signal", "signal", "signal", "signal", "signal", "signal", "signal", "list" ],
					"patching_rect" : [ 122.0, 615.0, 134.0, 22.0 ],
					"text" : "matrix~ 1 8 1. @ramp 0"
				}

			}
, 			{
				"box" : 				{
					"args" : [ 1 ],
					"bgmode" : 0,
					"border" : 0,
					"clickthrough" : 0,
					"enablehscroll" : 0,
					"enablevscroll" : 0,
					"id" : "obj-43",
					"lockeddragscroll" : 0,
					"maxclass" : "bpatcher",
					"name" : "bvefilterstep.maxpat",
					"numinlets" : 3,
					"numoutlets" : 3,
					"offset" : [ 0.0, 0.0 ],
					"outlettype" : [ "signal", "signal", "" ],
					"patching_rect" : [ 122.0, 682.0, 176.0, 75.0 ],
					"presentation" : 1,
					"presentation_rect" : [ 0.0, 0.0, 175.0, 72.0 ],
					"varname" : "bvefilterstep",
					"viewvisibility" : 1
				}

			}
, 			{
				"box" : 				{
					"fontname" : "Arial Bold",
					"fontsize" : 10.0,
					"id" : "obj-1",
					"maxclass" : "newobj",
					"numinlets" : 2,
					"numoutlets" : 2,
					"outlettype" : [ "signal", "signal" ],
					"patching_rect" : [ 122.0, 566.0, 200.0, 20.0 ],
					"text" : "plugin~"
				}

			}
 ],
		"lines" : [ 			{
				"patchline" : 				{
					"destination" : [ "obj-44", 0 ],
					"source" : [ "obj-1", 0 ]
				}

			}
, 			{
				"patchline" : 				{
					"destination" : [ "obj-51", 0 ],
					"source" : [ "obj-1", 1 ]
				}

			}
, 			{
				"patchline" : 				{
					"destination" : [ "obj-44", 0 ],
					"source" : [ "obj-2", 0 ]
				}

			}
, 			{
				"patchline" : 				{
					"destination" : [ "obj-51", 0 ],
					"source" : [ "obj-3", 0 ]
				}

			}
, 			{
				"patchline" : 				{
					"destination" : [ "obj-43", 2 ],
					"midpoints" : [ 580.5, 646.5, 288.5, 646.5 ],
					"order" : 0,
					"source" : [ "obj-4", 0 ]
				}

			}
, 			{
				"patchline" : 				{
					"destination" : [ "obj-53", 2 ],
					"midpoints" : [ 580.5, 646.5, 489.5, 646.5 ],
					"order" : 1,
					"source" : [ "obj-4", 0 ]
				}

			}
, 			{
				"patchline" : 				{
					"destination" : [ "obj-71", 2 ],
					"midpoints" : [ 580.5, 646.5, 690.5, 646.5 ],
					"order" : 2,
					"source" : [ "obj-4", 0 ]
				}

			}
, 			{
				"patchline" : 				{
					"destination" : [ "obj-72", 2 ],
					"midpoints" : [ 580.5, 646.5, 1294.5, 646.5 ],
					"order" : 5,
					"source" : [ "obj-4", 0 ]
				}

			}
, 			{
				"patchline" : 				{
					"destination" : [ "obj-73", 2 ],
					"midpoints" : [ 580.5, 646.5, 1093.5, 646.5 ],
					"order" : 4,
					"source" : [ "obj-4", 0 ]
				}

			}
, 			{
				"patchline" : 				{
					"destination" : [ "obj-74", 2 ],
					"midpoints" : [ 580.5, 646.5, 892.5, 646.5 ],
					"order" : 3,
					"source" : [ "obj-4", 0 ]
				}

			}
, 			{
				"patchline" : 				{
					"destination" : [ "obj-75", 2 ],
					"midpoints" : [ 580.5, 646.5, 1696.5, 646.5 ],
					"order" : 7,
					"source" : [ "obj-4", 0 ]
				}

			}
, 			{
				"patchline" : 				{
					"destination" : [ "obj-76", 2 ],
					"midpoints" : [ 580.5, 646.5, 1495.5, 646.5 ],
					"order" : 6,
					"source" : [ "obj-4", 0 ]
				}

			}
, 			{
				"patchline" : 				{
					"destination" : [ "obj-5", 0 ],
					"midpoints" : [ 131.5, 779.5, 209.5, 779.5 ],
					"source" : [ "obj-43", 0 ]
				}

			}
, 			{
				"patchline" : 				{
					"destination" : [ "obj-6", 0 ],
					"midpoints" : [ 210.0, 779.5, 249.5, 779.5 ],
					"source" : [ "obj-43", 1 ]
				}

			}
, 			{
				"patchline" : 				{
					"destination" : [ "obj-7", 0 ],
					"source" : [ "obj-43", 2 ]
				}

			}
, 			{
				"patchline" : 				{
					"destination" : [ "obj-43", 0 ],
					"midpoints" : [ 131.5, 663.0, 131.5, 663.0 ],
					"source" : [ "obj-44", 0 ]
				}

			}
, 			{
				"patchline" : 				{
					"destination" : [ "obj-53", 0 ],
					"midpoints" : [ 145.875, 663.0, 332.5, 663.0 ],
					"source" : [ "obj-44", 1 ]
				}

			}
, 			{
				"patchline" : 				{
					"destination" : [ "obj-71", 0 ],
					"midpoints" : [ 160.25, 663.0, 533.5, 663.0 ],
					"source" : [ "obj-44", 2 ]
				}

			}
, 			{
				"patchline" : 				{
					"destination" : [ "obj-72", 0 ],
					"midpoints" : [ 203.375, 663.0, 1137.5, 663.0 ],
					"source" : [ "obj-44", 5 ]
				}

			}
, 			{
				"patchline" : 				{
					"destination" : [ "obj-73", 0 ],
					"midpoints" : [ 189.0, 663.0, 936.5, 663.0 ],
					"source" : [ "obj-44", 4 ]
				}

			}
, 			{
				"patchline" : 				{
					"destination" : [ "obj-74", 0 ],
					"midpoints" : [ 174.625, 663.0, 735.5, 663.0 ],
					"source" : [ "obj-44", 3 ]
				}

			}
, 			{
				"patchline" : 				{
					"destination" : [ "obj-75", 0 ],
					"midpoints" : [ 232.125, 663.0, 1539.5, 663.0 ],
					"source" : [ "obj-44", 7 ]
				}

			}
, 			{
				"patchline" : 				{
					"destination" : [ "obj-76", 0 ],
					"midpoints" : [ 217.75, 663.0, 1338.5, 663.0 ],
					"source" : [ "obj-44", 6 ]
				}

			}
, 			{
				"patchline" : 				{
					"destination" : [ "obj-43", 1 ],
					"midpoints" : [ 312.5, 663.0, 210.0, 663.0 ],
					"source" : [ "obj-51", 0 ]
				}

			}
, 			{
				"patchline" : 				{
					"destination" : [ "obj-53", 1 ],
					"midpoints" : [ 326.875, 663.0, 411.0, 663.0 ],
					"source" : [ "obj-51", 1 ]
				}

			}
, 			{
				"patchline" : 				{
					"destination" : [ "obj-71", 1 ],
					"midpoints" : [ 341.25, 663.0, 612.0, 663.0 ],
					"source" : [ "obj-51", 2 ]
				}

			}
, 			{
				"patchline" : 				{
					"destination" : [ "obj-72", 1 ],
					"midpoints" : [ 384.375, 663.0, 1216.0, 663.0 ],
					"source" : [ "obj-51", 5 ]
				}

			}
, 			{
				"patchline" : 				{
					"destination" : [ "obj-73", 1 ],
					"midpoints" : [ 370.0, 663.0, 1015.0, 663.0 ],
					"source" : [ "obj-51", 4 ]
				}

			}
, 			{
				"patchline" : 				{
					"destination" : [ "obj-74", 1 ],
					"midpoints" : [ 355.625, 663.0, 814.0, 663.0 ],
					"source" : [ "obj-51", 3 ]
				}

			}
, 			{
				"patchline" : 				{
					"destination" : [ "obj-75", 1 ],
					"midpoints" : [ 413.125, 663.0, 1618.0, 663.0 ],
					"source" : [ "obj-51", 7 ]
				}

			}
, 			{
				"patchline" : 				{
					"destination" : [ "obj-76", 1 ],
					"midpoints" : [ 398.75, 663.0, 1417.0, 663.0 ],
					"source" : [ "obj-51", 6 ]
				}

			}
, 			{
				"patchline" : 				{
					"destination" : [ "obj-5", 0 ],
					"midpoints" : [ 332.5, 779.5, 209.5, 779.5 ],
					"source" : [ "obj-53", 0 ]
				}

			}
, 			{
				"patchline" : 				{
					"destination" : [ "obj-6", 0 ],
					"midpoints" : [ 411.0, 779.5, 249.5, 779.5 ],
					"source" : [ "obj-53", 1 ]
				}

			}
, 			{
				"patchline" : 				{
					"destination" : [ "obj-7", 0 ],
					"source" : [ "obj-53", 2 ]
				}

			}
, 			{
				"patchline" : 				{
					"destination" : [ "obj-5", 0 ],
					"midpoints" : [ 533.5, 779.5, 209.5, 779.5 ],
					"source" : [ "obj-71", 0 ]
				}

			}
, 			{
				"patchline" : 				{
					"destination" : [ "obj-6", 0 ],
					"midpoints" : [ 612.0, 779.5, 249.5, 779.5 ],
					"source" : [ "obj-71", 1 ]
				}

			}
, 			{
				"patchline" : 				{
					"destination" : [ "obj-7", 0 ],
					"source" : [ "obj-71", 2 ]
				}

			}
, 			{
				"patchline" : 				{
					"destination" : [ "obj-5", 0 ],
					"midpoints" : [ 1137.5, 779.5, 209.5, 779.5 ],
					"source" : [ "obj-72", 0 ]
				}

			}
, 			{
				"patchline" : 				{
					"destination" : [ "obj-6", 0 ],
					"midpoints" : [ 1216.0, 779.5, 249.5, 779.5 ],
					"source" : [ "obj-72", 1 ]
				}

			}
, 			{
				"patchline" : 				{
					"destination" : [ "obj-7", 0 ],
					"source" : [ "obj-72", 2 ]
				}

			}
, 			{
				"patchline" : 				{
					"destination" : [ "obj-5", 0 ],
					"midpoints" : [ 936.5, 779.5, 209.5, 779.5 ],
					"source" : [ "obj-73", 0 ]
				}

			}
, 			{
				"patchline" : 				{
					"destination" : [ "obj-6", 0 ],
					"midpoints" : [ 1015.0, 779.5, 249.5, 779.5 ],
					"source" : [ "obj-73", 1 ]
				}

			}
, 			{
				"patchline" : 				{
					"destination" : [ "obj-7", 0 ],
					"source" : [ "obj-73", 2 ]
				}

			}
, 			{
				"patchline" : 				{
					"destination" : [ "obj-5", 0 ],
					"midpoints" : [ 735.5, 779.5, 209.5, 779.5 ],
					"source" : [ "obj-74", 0 ]
				}

			}
, 			{
				"patchline" : 				{
					"destination" : [ "obj-6", 0 ],
					"midpoints" : [ 814.0, 779.5, 249.5, 779.5 ],
					"source" : [ "obj-74", 1 ]
				}

			}
, 			{
				"patchline" : 				{
					"destination" : [ "obj-7", 0 ],
					"source" : [ "obj-74", 2 ]
				}

			}
, 			{
				"patchline" : 				{
					"destination" : [ "obj-5", 0 ],
					"midpoints" : [ 1539.5, 779.5, 209.5, 779.5 ],
					"source" : [ "obj-75", 0 ]
				}

			}
, 			{
				"patchline" : 				{
					"destination" : [ "obj-6", 0 ],
					"midpoints" : [ 1618.0, 779.5, 249.5, 779.5 ],
					"source" : [ "obj-75", 1 ]
				}

			}
, 			{
				"patchline" : 				{
					"destination" : [ "obj-7", 0 ],
					"source" : [ "obj-75", 2 ]
				}

			}
, 			{
				"patchline" : 				{
					"destination" : [ "obj-5", 0 ],
					"midpoints" : [ 1338.5, 779.5, 209.5, 779.5 ],
					"source" : [ "obj-76", 0 ]
				}

			}
, 			{
				"patchline" : 				{
					"destination" : [ "obj-6", 0 ],
					"midpoints" : [ 1417.0, 779.5, 249.5, 779.5 ],
					"source" : [ "obj-76", 1 ]
				}

			}
, 			{
				"patchline" : 				{
					"destination" : [ "obj-7", 0 ],
					"source" : [ "obj-76", 2 ]
				}

			}
 ],
		"parameters" : 		{
			"obj-43::obj-2" : [ "live.toggle[7]", "live.toggle", 0 ],
			"obj-43::obj-34" : [ "center-cutoff[7]", "center-cutoff", 0 ],
			"obj-43::obj-35" : [ "gain[7]", "gain", 0 ],
			"obj-43::obj-36" : [ "q-s[7]", "q-s", 0 ],
			"obj-43::obj-4" : [ "filtergraph~[7]", "filtergraph~", 0 ],
			"obj-43::obj-47" : [ "global quantize[8]", "global quantize", 2 ],
			"obj-43::obj-77" : [ "filter-response[7]", "filter-response", 0 ],
			"obj-53::obj-2" : [ "live.toggle[6]", "live.toggle", 0 ],
			"obj-53::obj-34" : [ "center-cutoff[6]", "center-cutoff", 0 ],
			"obj-53::obj-35" : [ "gain[6]", "gain", 0 ],
			"obj-53::obj-36" : [ "q-s[6]", "q-s", 0 ],
			"obj-53::obj-4" : [ "filtergraph~[6]", "filtergraph~", 0 ],
			"obj-53::obj-47" : [ "global quantize[7]", "global quantize", 2 ],
			"obj-53::obj-77" : [ "filter-response[6]", "filter-response", 0 ],
			"obj-71::obj-2" : [ "live.toggle[5]", "live.toggle", 0 ],
			"obj-71::obj-34" : [ "center-cutoff[5]", "center-cutoff", 0 ],
			"obj-71::obj-35" : [ "gain[5]", "gain", 0 ],
			"obj-71::obj-36" : [ "q-s[5]", "q-s", 0 ],
			"obj-71::obj-4" : [ "filtergraph~[5]", "filtergraph~", 0 ],
			"obj-71::obj-47" : [ "global quantize[6]", "global quantize", 2 ],
			"obj-71::obj-77" : [ "filter-response[5]", "filter-response", 0 ],
			"obj-72::obj-2" : [ "live.toggle[2]", "live.toggle", 0 ],
			"obj-72::obj-34" : [ "center-cutoff[2]", "center-cutoff", 0 ],
			"obj-72::obj-35" : [ "gain[2]", "gain", 0 ],
			"obj-72::obj-36" : [ "q-s[2]", "q-s", 0 ],
			"obj-72::obj-4" : [ "filtergraph~[2]", "filtergraph~", 0 ],
			"obj-72::obj-47" : [ "global quantize[3]", "global quantize", 2 ],
			"obj-72::obj-77" : [ "filter-response[2]", "filter-response", 0 ],
			"obj-73::obj-2" : [ "live.toggle[3]", "live.toggle", 0 ],
			"obj-73::obj-34" : [ "center-cutoff[3]", "center-cutoff", 0 ],
			"obj-73::obj-35" : [ "gain[3]", "gain", 0 ],
			"obj-73::obj-36" : [ "q-s[3]", "q-s", 0 ],
			"obj-73::obj-4" : [ "filtergraph~[3]", "filtergraph~", 0 ],
			"obj-73::obj-47" : [ "global quantize[4]", "global quantize", 2 ],
			"obj-73::obj-77" : [ "filter-response[3]", "filter-response", 0 ],
			"obj-74::obj-2" : [ "live.toggle[4]", "live.toggle", 0 ],
			"obj-74::obj-34" : [ "center-cutoff[4]", "center-cutoff", 0 ],
			"obj-74::obj-35" : [ "gain[4]", "gain", 0 ],
			"obj-74::obj-36" : [ "q-s[4]", "q-s", 0 ],
			"obj-74::obj-4" : [ "filtergraph~[4]", "filtergraph~", 0 ],
			"obj-74::obj-47" : [ "global quantize[5]", "global quantize", 2 ],
			"obj-74::obj-77" : [ "filter-response[4]", "filter-response", 0 ],
			"obj-75::obj-2" : [ "live.toggle", "live.toggle", 0 ],
			"obj-75::obj-34" : [ "center-cutoff", "center-cutoff", 0 ],
			"obj-75::obj-35" : [ "gain", "gain", 0 ],
			"obj-75::obj-36" : [ "q-s", "q-s", 0 ],
			"obj-75::obj-4" : [ "filtergraph~", "filtergraph~", 0 ],
			"obj-75::obj-47" : [ "global quantize[1]", "global quantize", 2 ],
			"obj-75::obj-77" : [ "filter-response", "filter-response", 0 ],
			"obj-76::obj-2" : [ "live.toggle[1]", "live.toggle", 0 ],
			"obj-76::obj-34" : [ "center-cutoff[1]", "center-cutoff", 0 ],
			"obj-76::obj-35" : [ "gain[1]", "gain", 0 ],
			"obj-76::obj-36" : [ "q-s[1]", "q-s", 0 ],
			"obj-76::obj-4" : [ "filtergraph~[1]", "filtergraph~", 0 ],
			"obj-76::obj-47" : [ "global quantize[2]", "global quantize", 2 ],
			"obj-76::obj-77" : [ "filter-response[1]", "filter-response", 0 ],
			"parameterbanks" : 			{

			}
,
			"parameter_overrides" : 			{
				"obj-43::obj-2" : 				{
					"parameter_longname" : "live.toggle[7]"
				}
,
				"obj-43::obj-34" : 				{
					"parameter_longname" : "center-cutoff[7]"
				}
,
				"obj-43::obj-35" : 				{
					"parameter_longname" : "gain[7]"
				}
,
				"obj-43::obj-36" : 				{
					"parameter_longname" : "q-s[7]"
				}
,
				"obj-43::obj-47" : 				{
					"parameter_longname" : "global quantize[8]"
				}
,
				"obj-43::obj-77" : 				{
					"parameter_longname" : "filter-response[7]"
				}
,
				"obj-53::obj-2" : 				{
					"parameter_longname" : "live.toggle[6]"
				}
,
				"obj-53::obj-34" : 				{
					"parameter_longname" : "center-cutoff[6]"
				}
,
				"obj-53::obj-35" : 				{
					"parameter_longname" : "gain[6]"
				}
,
				"obj-53::obj-36" : 				{
					"parameter_longname" : "q-s[6]"
				}
,
				"obj-53::obj-47" : 				{
					"parameter_longname" : "global quantize[7]"
				}
,
				"obj-53::obj-77" : 				{
					"parameter_longname" : "filter-response[6]"
				}
,
				"obj-71::obj-2" : 				{
					"parameter_longname" : "live.toggle[5]"
				}
,
				"obj-71::obj-34" : 				{
					"parameter_longname" : "center-cutoff[5]"
				}
,
				"obj-71::obj-35" : 				{
					"parameter_longname" : "gain[5]"
				}
,
				"obj-71::obj-36" : 				{
					"parameter_longname" : "q-s[5]"
				}
,
				"obj-71::obj-47" : 				{
					"parameter_longname" : "global quantize[6]"
				}
,
				"obj-71::obj-77" : 				{
					"parameter_longname" : "filter-response[5]"
				}
,
				"obj-72::obj-2" : 				{
					"parameter_longname" : "live.toggle[2]"
				}
,
				"obj-72::obj-34" : 				{
					"parameter_longname" : "center-cutoff[2]"
				}
,
				"obj-72::obj-35" : 				{
					"parameter_longname" : "gain[2]"
				}
,
				"obj-72::obj-36" : 				{
					"parameter_longname" : "q-s[2]"
				}
,
				"obj-72::obj-47" : 				{
					"parameter_longname" : "global quantize[3]"
				}
,
				"obj-72::obj-77" : 				{
					"parameter_longname" : "filter-response[2]"
				}
,
				"obj-73::obj-2" : 				{
					"parameter_longname" : "live.toggle[3]"
				}
,
				"obj-73::obj-34" : 				{
					"parameter_longname" : "center-cutoff[3]"
				}
,
				"obj-73::obj-35" : 				{
					"parameter_longname" : "gain[3]"
				}
,
				"obj-73::obj-36" : 				{
					"parameter_longname" : "q-s[3]"
				}
,
				"obj-73::obj-47" : 				{
					"parameter_longname" : "global quantize[4]"
				}
,
				"obj-73::obj-77" : 				{
					"parameter_longname" : "filter-response[3]"
				}
,
				"obj-74::obj-2" : 				{
					"parameter_longname" : "live.toggle[4]"
				}
,
				"obj-74::obj-34" : 				{
					"parameter_longname" : "center-cutoff[4]"
				}
,
				"obj-74::obj-35" : 				{
					"parameter_longname" : "gain[4]"
				}
,
				"obj-74::obj-36" : 				{
					"parameter_longname" : "q-s[4]"
				}
,
				"obj-74::obj-47" : 				{
					"parameter_longname" : "global quantize[5]"
				}
,
				"obj-74::obj-77" : 				{
					"parameter_longname" : "filter-response[4]"
				}
,
				"obj-76::obj-2" : 				{
					"parameter_longname" : "live.toggle[1]"
				}
,
				"obj-76::obj-34" : 				{
					"parameter_longname" : "center-cutoff[1]"
				}
,
				"obj-76::obj-35" : 				{
					"parameter_longname" : "gain[1]"
				}
,
				"obj-76::obj-36" : 				{
					"parameter_longname" : "q-s[1]"
				}
,
				"obj-76::obj-47" : 				{
					"parameter_longname" : "global quantize[2]"
				}
,
				"obj-76::obj-77" : 				{
					"parameter_longname" : "filter-response[1]"
				}

			}
,
			"inherited_shortname" : 1
		}
,
		"dependency_cache" : [ 			{
				"name" : "bvefilterstep.maxpat",
				"bootpath" : "~/Google Drive/User Presets/M4L/BVE/bve.filterstepper",
				"patcherrelativepath" : ".",
				"type" : "JSON",
				"implicit" : 1
			}
 ],
		"autosave" : 0
	}

}
